<svg width="48" height="48" viewBox="0 0 48 48" fill="none" xmlns="http://www.w3.org/2000/svg">
  <!-- Background circle with glassmorphism gradient -->
  <circle cx="24" cy="24" r="22" fill="url(#bgGradient)" stroke="url(#borderGradient)" stroke-width="2"/>
  
  <!-- Clear path with checkpoints -->
  <g transform="translate(6, 18)">
    <!-- Main path line (represents clear guidance) -->
    <path d="M4 12C8 8 12 12 16 8C20 12 24 8 28 12C32 8 36 12 36 12" 
          stroke="#2563eb" stroke-width="3" stroke-linecap="round" stroke-linejoin="round" fill="none"/>
    
    <!-- Checkpoints along the path (reliability markers) -->
    <circle cx="8" cy="10" r="3" fill="#ffffff" stroke="#2563eb" stroke-width="2"/>
    <circle cx="20" cy="10" r="3" fill="#ffffff" stroke="#10b981" stroke-width="2"/>
    <circle cx="32" cy="10" r="3" fill="#ffffff" stroke="#2563eb" stroke-width="2"/>
    
    <!-- Check marks in checkpoints -->
    <path d="M6.5 10L7.5 11L9.5 9" stroke="#2563eb" stroke-width="1.5" stroke-linecap="round" stroke-linejoin="round"/>
    <path d="M18.5 10L19.5 11L21.5 9" stroke="#10b981" stroke-width="1.5" stroke-linecap="round" stroke-linejoin="round"/>
    <path d="M30.5 10L31.5 11L33.5 9" stroke="#2563eb" stroke-width="1.5" stroke-linecap="round" stroke-linejoin="round"/>
  </g>
  
  <!-- Transparency symbol (glass/crystal effect) -->
  <g transform="translate(20, 8)" opacity="0.7">
    <rect x="0" y="0" width="8" height="6" rx="1" fill="none" stroke="#3b82f6" stroke-width="1.2"/>
    <path d="M1 2L7 2M1 4L7 4" stroke="#3b82f6" stroke-width="0.8" opacity="0.5"/>
  </g>
  
  <!-- Small accessibility icon -->
  <g transform="translate(34, 30) scale(0.8)" opacity="0.8">
    <circle cx="3" cy="2" r="1.2" fill="#6366f1"/>
    <path d="M1.5 4C1.5 4 2.5 4.5 4.5 4.5C4.5 4.5 4.5 6.5 3 8" 
          stroke="#6366f1" stroke-width="1.2" stroke-linecap="round" fill="none"/>
  </g>
  
  <!-- Gradient definitions -->
  <defs>
    <linearGradient id="bgGradient" x1="0%" y1="0%" x2="100%" y2="100%">
      <stop offset="0%" style="stop-color:rgba(59, 130, 246, 0.08);stop-opacity:1" />
      <stop offset="50%" style="stop-color:rgba(255, 255, 255, 0.95);stop-opacity:1" />
      <stop offset="100%" style="stop-color:rgba(16, 185, 129, 0.08);stop-opacity:1" />
    </linearGradient>
    <linearGradient id="borderGradient" x1="0%" y1="0%" x2="100%" y2="100%">
      <stop offset="0%" style="stop-color:rgba(37, 99, 235, 0.25);stop-opacity:1" />
      <stop offset="100%" style="stop-color:rgba(16, 185, 129, 0.25);stop-opacity:1" />
    </linearGradient>
  </defs>
</svg>
